<svg xmlns="http://www.w3.org/2000/svg" width="360" height="360" viewBox="0 0 360 360">
  <defs>
    <filter id="fiber-noise" x="0" y="0" width="100%" height="100%">
      <feTurbulence type="fractalNoise" baseFrequency="0.52 0.1" numOctaves="2" seed="18" stitchTiles="stitch" result="noise" />
      <feColorMatrix
        in="noise"
        type="matrix"
        values="0 0 0 0 0.78
                0 0 0 0 0.76
                0 0 0 0 0.72
                0 0 0 0.052 -0.027"
      />
    </filter>
    <filter id="soften" x="-8%" y="-8%" width="116%" height="116%">
      <feGaussianBlur stdDeviation="0.22" />
    </filter>
  </defs>
  <rect width="360" height="360" fill="transparent" filter="url(#fiber-noise)" opacity="0.36" />
  <g fill="none" stroke="#d8d1c2" stroke-linecap="round" stroke-width="0.32" opacity="0.09" filter="url(#soften)">
    <path d="M-14 42 C38 36 92 50 148 42 S252 34 374 46" />
    <path d="M-18 119 C52 126 124 105 196 116 S294 137 376 121" />
    <path d="M-12 209 C44 202 96 214 160 208 S282 190 374 204" />
    <path d="M-18 318 C62 326 116 305 188 314 S288 331 376 316" />
    <path d="M24 268 C72 252 124 263 172 246 S276 226 340 236" />
    <path d="M38 28 C92 60 126 76 180 88 S284 130 338 154" />
    <path d="M-12 176 C56 166 106 181 162 171 S246 154 376 164" />
    <path d="M76 348 C114 310 130 276 164 232 S224 162 286 118" />
  </g>
  <g fill="none" stroke="#e4ded1" stroke-linecap="round" stroke-width="0.24" opacity="0.105">
    <path d="M38 88 C70 82 96 86 126 80" />
    <path d="M208 72 C236 66 260 69 292 63" />
    <path d="M64 244 C88 238 112 240 142 233" />
    <path d="M198 284 C228 278 258 284 296 274" />
    <path d="M18 338 C48 332 78 337 104 330" />
  </g>
</svg>
